<?xml version="1.0" encoding="utf-8"?>
<!-- Generator: Adobe Illustrator 26.2.1, SVG Export Plug-In . SVG Version: 6.00 Build 0)  -->
<svg version="1.1" id="Layer_1" xmlns="http://www.w3.org/2000/svg" xmlns:xlink="http://www.w3.org/1999/xlink" x="0px" y="0px"
	 viewBox="0 0 198.32 10.55" style="enable-background:new 0 0 198.32 10.55;" xml:space="preserve">
<style type="text/css">
	.st0{fill:#3BBCBA;}
	.st1{fill:#F1F2F2;}
	.st2{fill:#EA593A;}
	.st3{fill:#E3A633;}
</style>
<g>
	<path class="st0" d="M9.68,1.85c1.49,0,2.7,1.22,2.7,2.7v1.79c0,1.49-1.22,2.7-2.7,2.7H8.92H8.11H3.84v-7.2h4.27h0.81H9.68z
		 M9.68,7.63c0.71,0,1.29-0.58,1.29-1.29V4.55c0-0.71-0.58-1.29-1.29-1.29H8.92H8.11H5.26v4.36h2.85h0.81H9.68z"/>
	<path class="st0" d="M15.76,9.05h-1.63l4.15-7.2h1.64l4.15,7.2h-1.63l-0.59-1.03L21.03,6.6l-1.93-3.33L17.18,6.6l-0.82,1.42
		L15.76,9.05z"/>
	<path class="st0" d="M25.98,1.85h1.28h0.34l5.42,5.52V1.85h1.42v7.2h-0.21h-1.21h-0.34l-5.42-5.52v5.52h-1.42v-7.2H25.98z"/>
	<path class="st0" d="M36.34,1.85h1.28h0.34l5.42,5.52V1.85h1.42v7.2h-0.21h-1.21h-0.34l-5.42-5.52v5.52H36.2v-7.2H36.34z"/>
	<path class="st0" d="M46.55,1.85h1.99l2.57,2.59l2.57-2.59h1.99l-3.56,3.6l-0.29,0.29v3.31H50.4V5.74l-0.29-0.29L46.55,1.85z"/>
	<path class="st1" d="M58.74,9.18c-0.41,0-0.7-0.32-0.7-0.76c0-0.43,0.3-0.76,0.72-0.76s0.71,0.31,0.71,0.76
		c0,0.43-0.29,0.76-0.72,0.76H58.74z"/>
	<path class="st2" d="M63.92,1.85h8.53v1.42h-8.53V1.85z M69.85,4.74H65.1h-1.18v1.42h7.12V4.74H69.85z M71.03,7.63h-5.7h-1.42v1.42
		h8.53V7.63H71.03z"/>
	<path class="st2" d="M74.34,1.85h1.28h0.34l5.42,5.52V1.85h1.42v7.2h-0.21h-1.21h-0.34l-5.42-5.52v5.52H74.2v-7.2H74.34z"/>
	<path class="st2" d="M91.67,6.35V6.17h-2.85V4.75h4.27v1.42v0.18c0,1.49-1.22,2.7-2.7,2.7h-3.13c-1.49,0-2.7-1.22-2.7-2.7V4.55
		c0-1.49,1.22-2.7,2.7-2.7h3.13c1.31,0,2.41,0.95,2.65,2.19h-1.47c-0.2-0.46-0.65-0.78-1.18-0.78h-3.13c-0.71,0-1.29,0.58-1.29,1.29
		v1.79c0,0.71,0.58,1.29,1.29,1.29h1.57h1.57C91.09,7.63,91.67,7.05,91.67,6.35z"/>
	<path class="st2" d="M103.02,9.05h-6.76h-1.42V7.63V1.85h1.42v5.78h6.76V9.05z"/>
	<path class="st2" d="M106.41,9.05h-1.63l4.15-7.2h1.64l4.15,7.2h-1.63l-0.59-1.03l-0.82-1.42l-1.93-3.33l-1.93,3.33l-0.82,1.42
		L106.41,9.05z"/>
	<path class="st2" d="M116.63,1.85h1.28h0.34l5.43,5.52V1.85h1.42v7.2h-0.21h-1.21h-0.34l-5.42-5.52v5.52h-1.42v-7.2H116.63z"/>
	<path class="st2" d="M132.67,1.85c1.49,0,2.7,1.22,2.7,2.7v1.79c0,1.49-1.22,2.7-2.7,2.7h-0.76h-0.81h-4.27v-7.2h4.27h0.81H132.67z
		 M132.67,7.63c0.71,0,1.29-0.58,1.29-1.29V4.55c0-0.71-0.58-1.29-1.29-1.29h-0.76h-0.81h-2.85v4.36h2.85h0.81H132.67z"/>
	<path class="st2" d="M137.13,1.85h8.53v1.42h-8.53V1.85z M143.06,4.74h-4.76h-1.18v1.42h7.12V4.74H143.06z M144.24,7.63h-5.7h-1.42
		v1.42h8.53V7.63H144.24z"/>
	<path class="st2" d="M150.44,5.1h3.17c0.5,0,0.91-0.41,0.91-0.91s-0.41-0.91-0.91-0.91h-3.17h-1.61h-1.42V1.85h1.42h0.91h3.87
		c1.28,0,2.33,1.05,2.33,2.33c0,1.09-0.76,2.01-1.77,2.26l2.13,2.6h-1.83l-2.07-2.54h-2.66h-0.91v2.54h-1.42V6.51V5.1h1.42H150.44z"
		/>
	<path class="st1" d="M159.37,9.18c-0.41,0-0.7-0.32-0.7-0.76c0-0.43,0.3-0.76,0.72-0.76c0.42,0,0.71,0.31,0.71,0.76
		c0,0.43-0.29,0.76-0.72,0.76H159.37z"/>
	<path class="st3" d="M166.18,9.05h-1.63l4.15-7.2h1.64l4.15,7.2h-1.63l-0.59-1.03l-0.82-1.42l-1.93-3.33L167.6,6.6l-0.82,1.42
		L166.18,9.05z"/>
	<path class="st3" d="M179.29,5.1h3.17c0.5,0,0.91-0.41,0.91-0.91s-0.41-0.91-0.91-0.91h-3.17h-1.61h-1.42V1.85h1.42h0.91h3.87
		c1.28,0,2.33,1.05,2.33,2.33c0,1.09-0.76,2.01-1.77,2.26l2.13,2.6h-1.83l-2.07-2.54h-2.66h-0.91v2.54h-1.42V6.51V5.1h1.42H179.29z"
		/>
	<path class="st3" d="M195.44,3.27h-3.56v5.78h-1.42V3.27h-3.56V1.85h3.56h1.42h3.56V3.27z"/>
</g>
</svg>
