<?xml version="1.0" encoding="UTF-8"?>
<svg width="504px" height="504px" viewBox="0 0 504 504" version="1.1" xmlns="http://www.w3.org/2000/svg" xmlns:xlink="http://www.w3.org/1999/xlink">
    <title>Shape</title>
    <g id="Page-1" stroke="none" stroke-width="1" fill="none" fill-rule="evenodd">
        <g id="spinner" transform="translate(0.000000, 0.000000)" fill="#00636A" fill-rule="nonzero">
            <path d="M252,0 C264.32,0 273.84,14 273.84,31.359 L273.84,94.078 C273.84,111.437 263.762,125.437 252,125.437 C239.68,125.437 230.16,111.437 230.16,94.078 L230.16,31.359 C230.16,14 239.6795,0 252,0 Z M378,33.602 C388.641,39.7622 390.32,56.563 381.3594,71.68 L350.0004,126 C341.0395,141.121 325.9224,148.398 315.2814,142.238 C304.6404,136.0778 302.9614,119.277 311.922,104.16 L343.281,49.84 C351.6794,34.719 367.359,27.442 378,33.602 Z M470.398,126 C476.5582,136.641 469.2769,152.32 454.16,160.719 L399.84,192.078 C384.719,201.0389 367.36,199.3592 361.762,188.7186 C355.6018,178.0776 362.8831,162.3986 378,153.9996 L432.32,122.6406 C446.879,113.6797 464.238,115.3594 470.398,126 Z M504.001,252 C504.001,264.32 490,273.84 472.641,273.84 L409.36,273.84 C392.001,273.84 378.001,263.762 378.001,252 C378.001,239.68 392.001,230.16 409.36,230.16 L472.079,230.16 C490.001,230.16 504.001,239.6795 504.001,252 L504.001,252 Z M470.398,378 C464.2378,388.641 447.437,390.32 432.32,381.3594 L378,350.0004 C362.879,341.0395 355.602,325.9224 361.762,315.2814 C367.9222,304.6404 384.723,302.9614 399.84,311.922 L454.16,343.281 C469.281,351.6794 476.558,367.359 470.398,378 L470.398,378 Z M378,470.398 C367.359,476.5582 351.68,469.2769 343.281,454.16 L311.922,399.84 C302.9611,384.719 304.6408,367.36 315.2814,361.762 C325.9224,355.6018 341.6014,362.8831 350.0004,378 L381.3594,432.32 C390.3203,446.879 388.6406,464.238 378,470.398 Z M252,504.001 C239.68,504.001 230.16,490 230.16,472.641 L230.16,409.36 C230.16,392.001 240.238,378.001 252,378.001 C264.32,378.001 273.84,392.001 273.84,409.36 L273.84,472.079 C273.84,490.001 264.3205,504.001 252,504.001 L252,504.001 Z M126,470.398 C115.359,464.2378 113.68,447.437 122.6406,432.32 L153.9996,378 C162.9605,362.879 178.0776,355.602 188.7186,361.762 C199.3596,367.9222 201.0386,384.723 192.078,399.84 L160.719,454.16 C152.3206,469.281 136.641,476.558 126,470.398 L126,470.398 Z M33.602,378 C27.4418,367.359 34.7231,351.68 49.84,343.281 L104.16,311.922 C119.281,302.9611 136.64,304.6408 142.238,315.2814 C148.3982,325.9224 141.1169,341.6014 126,350.0004 L71.68,381.3594 C57.121,390.3203 39.762,388.6406 33.602,378 Z M-2.84217094e-14,252 C-2.84217094e-14,239.68 14,230.16 31.359,230.16 L94.078,230.16 C111.437,230.16 125.437,240.238 125.437,252 C125.437,264.32 111.437,273.84 94.078,273.84 L31.359,273.84 C14,273.84 -2.84217094e-14,264.3205 -2.84217094e-14,252 Z M33.602,126 C39.7622,115.359 56.563,113.68 71.68,122.6406 L126,153.9996 C141.121,162.9605 148.398,178.0776 142.238,188.7186 C136.0778,199.3596 119.277,201.0386 104.16,192.078 L49.84,160.719 C34.719,152.3206 27.442,136.641 33.602,126 Z M126,33.602 C136.641,27.4418 152.32,34.7231 160.719,49.84 L192.078,104.16 C201.0389,119.281 199.3592,136.64 188.7186,142.238 C178.0776,148.3982 162.3986,141.1169 153.9996,126 L122.6406,71.68 C113.6797,57.121 115.3594,39.762 126,33.602 L126,33.602 Z" id="Shape"></path>
        </g>
    </g>
</svg>